<svg width="71" height="21" viewBox="0 0 71 21" fill="none" xmlns="http://www.w3.org/2000/svg">
<path d="M10.5 0.5H60.5C66.0228 0.5 70.5 4.97715 70.5 10.5C70.5 16.0228 66.0229 20.5 60.5 20.5H10.5C4.97715 20.5 0.5 16.0228 0.5 10.5C0.5 4.97715 4.97715 0.5 10.5 0.5Z" fill="#C8E6FF"/>
<path d="M10.5 0.5H60.5C66.0228 0.5 70.5 4.97715 70.5 10.5C70.5 16.0228 66.0229 20.5 60.5 20.5H10.5C4.97715 20.5 0.5 16.0228 0.5 10.5C0.5 4.97715 4.97715 0.5 10.5 0.5Z" stroke="#35A4FF"/>
<path d="M10.7614 6.72727V14H9.88068V6.72727H10.7614ZM13.2516 10.7188V14H12.4135V8.54545H13.2232V9.39773H13.2942C13.4221 9.12074 13.6162 8.8982 13.8766 8.73011C14.137 8.55966 14.4732 8.47443 14.8851 8.47443C15.2544 8.47443 15.5776 8.55019 15.8546 8.7017C16.1316 8.85085 16.347 9.07812 16.5009 9.38352C16.6548 9.68655 16.7317 10.0701 16.7317 10.5341V14H15.8936V10.5909C15.8936 10.1624 15.7824 9.8286 15.5598 9.58949C15.3373 9.34801 15.0319 9.22727 14.6436 9.22727C14.3761 9.22727 14.137 9.28527 13.9263 9.40128C13.718 9.51728 13.5534 9.68655 13.4327 9.90909C13.312 10.1316 13.2516 10.4015 13.2516 10.7188ZM21.1893 14V6.72727H23.6467C24.2172 6.72727 24.6836 6.83026 25.0458 7.03622C25.4104 7.23982 25.6803 7.51562 25.8555 7.86364C26.0307 8.21165 26.1183 8.59991 26.1183 9.02841C26.1183 9.45691 26.0307 9.84635 25.8555 10.1967C25.6826 10.5471 25.4151 10.8265 25.0529 11.0348C24.6907 11.2408 24.2267 11.3438 23.6609 11.3438H21.8995V10.5625H23.6325C24.0231 10.5625 24.3368 10.495 24.5735 10.3601C24.8103 10.2251 24.9819 10.0429 25.0884 9.81321C25.1973 9.5812 25.2518 9.3196 25.2518 9.02841C25.2518 8.73722 25.1973 8.4768 25.0884 8.24716C24.9819 8.01752 24.8091 7.83759 24.57 7.70739C24.3308 7.57481 24.0136 7.50852 23.6183 7.50852H22.07V14H21.1893ZM27.4233 14V8.54545H28.233V9.36932H28.2898C28.3892 9.09943 28.5691 8.88045 28.8295 8.71236C29.09 8.54427 29.3835 8.46023 29.7102 8.46023C29.7718 8.46023 29.8487 8.46141 29.9411 8.46378C30.0334 8.46615 30.1032 8.4697 30.1506 8.47443V9.3267C30.1222 9.3196 30.0571 9.30895 29.9553 9.29474C29.8558 9.27817 29.7505 9.26989 29.6392 9.26989C29.3741 9.26989 29.1373 9.32552 28.929 9.43679C28.723 9.54569 28.5597 9.69721 28.4389 9.89134C28.3205 10.0831 28.2614 10.3021 28.2614 10.5483V14H27.4233ZM33.1939 14.1136C32.7015 14.1136 32.2694 13.9964 31.8977 13.7621C31.5284 13.5277 31.2396 13.1998 31.0312 12.7784C30.8253 12.357 30.7223 11.8646 30.7223 11.3011C30.7223 10.733 30.8253 10.237 31.0312 9.81321C31.2396 9.38944 31.5284 9.06037 31.8977 8.82599C32.2694 8.59162 32.7015 8.47443 33.1939 8.47443C33.6863 8.47443 34.1172 8.59162 34.4865 8.82599C34.8582 9.06037 35.147 9.38944 35.353 9.81321C35.5613 10.237 35.6655 10.733 35.6655 11.3011C35.6655 11.8646 35.5613 12.357 35.353 12.7784C35.147 13.1998 34.8582 13.5277 34.4865 13.7621C34.1172 13.9964 33.6863 14.1136 33.1939 14.1136ZM33.1939 13.3608C33.5679 13.3608 33.8757 13.2649 34.1172 13.0732C34.3587 12.8814 34.5374 12.6293 34.6534 12.3168C34.7694 12.0043 34.8274 11.6657 34.8274 11.3011C34.8274 10.9366 34.7694 10.5968 34.6534 10.282C34.5374 9.96709 34.3587 9.71259 34.1172 9.51847C33.8757 9.32434 33.5679 9.22727 33.1939 9.22727C32.8198 9.22727 32.5121 9.32434 32.2706 9.51847C32.0291 9.71259 31.8504 9.96709 31.7344 10.282C31.6184 10.5968 31.5604 10.9366 31.5604 11.3011C31.5604 11.6657 31.6184 12.0043 31.7344 12.3168C31.8504 12.6293 32.0291 12.8814 32.2706 13.0732C32.5121 13.2649 32.8198 13.3608 33.1939 13.3608ZM39.1465 16.1591C38.7417 16.1591 38.3936 16.107 38.1025 16.0028C37.8113 15.901 37.5686 15.7661 37.3745 15.598C37.1827 15.4323 37.03 15.2547 36.9164 15.0653L37.584 14.5966C37.6597 14.696 37.7556 14.8097 37.8716 14.9375C37.9876 15.0677 38.1462 15.1802 38.3475 15.2749C38.5511 15.3719 38.8174 15.4205 39.1465 15.4205C39.5868 15.4205 39.9502 15.3139 40.2367 15.1009C40.5231 14.8878 40.6664 14.554 40.6664 14.0994V12.9915H40.5953C40.5338 13.0909 40.4462 13.214 40.3326 13.3608C40.2213 13.5052 40.0603 13.6342 39.8496 13.7479C39.6413 13.8591 39.3596 13.9148 39.0044 13.9148C38.5641 13.9148 38.1687 13.8106 37.8184 13.6023C37.4703 13.3939 37.1945 13.0909 36.9909 12.6932C36.7897 12.2955 36.6891 11.8125 36.6891 11.2443C36.6891 10.6856 36.7873 10.1991 36.9838 9.7848C37.1803 9.36813 37.4538 9.04616 37.8042 8.81889C38.1545 8.58925 38.5594 8.47443 39.0186 8.47443C39.3738 8.47443 39.6555 8.53362 39.8638 8.65199C40.0745 8.76799 40.2355 8.90057 40.3468 9.04972C40.4604 9.1965 40.548 9.31723 40.6096 9.41193H40.6948V8.54545H41.5044V14.1562C41.5044 14.625 41.3979 15.0062 41.1848 15.2997C40.9741 15.5956 40.69 15.8123 40.3326 15.9496C39.9775 16.0893 39.5821 16.1591 39.1465 16.1591ZM39.1181 13.1619C39.4542 13.1619 39.7383 13.085 39.9703 12.9311C40.2024 12.7772 40.3787 12.5559 40.4995 12.267C40.6202 11.9782 40.6806 11.6326 40.6806 11.2301C40.6806 10.8371 40.6214 10.4903 40.503 10.1896C40.3846 9.88897 40.2095 9.65341 39.9775 9.48295C39.7454 9.3125 39.459 9.22727 39.1181 9.22727C38.763 9.22727 38.467 9.31723 38.2303 9.49716C37.9959 9.67708 37.8195 9.91856 37.7012 10.2216C37.5852 10.5246 37.5272 10.8608 37.5272 11.2301C37.5272 11.6089 37.5864 11.9439 37.7047 12.2351C37.8255 12.5239 38.003 12.7512 38.2374 12.9169C38.4741 13.0803 38.7677 13.1619 39.1181 13.1619ZM43.0385 14V8.54545H43.8482V9.36932H43.905C44.0044 9.09943 44.1844 8.88045 44.4448 8.71236C44.7052 8.54427 44.9988 8.46023 45.3255 8.46023C45.387 8.46023 45.464 8.46141 45.5563 8.46378C45.6486 8.46615 45.7185 8.4697 45.7658 8.47443V9.3267C45.7374 9.3196 45.6723 9.30895 45.5705 9.29474C45.4711 9.27817 45.3657 9.26989 45.2544 9.26989C44.9893 9.26989 44.7525 9.32552 44.5442 9.43679C44.3382 9.54569 44.1749 9.69721 44.0542 9.89134C43.9358 10.0831 43.8766 10.3021 43.8766 10.5483V14H43.0385ZM48.8801 14.1136C48.3546 14.1136 47.9012 13.9976 47.5201 13.7656C47.1413 13.5312 46.8489 13.2045 46.6429 12.7855C46.4393 12.3641 46.3375 11.8741 46.3375 11.3153C46.3375 10.7566 46.4393 10.2642 46.6429 9.83807C46.8489 9.40956 47.1354 9.07576 47.5023 8.83665C47.8716 8.59517 48.3025 8.47443 48.7949 8.47443C49.079 8.47443 49.3596 8.52178 49.6365 8.61648C49.9135 8.71117 50.1657 8.86506 50.3929 9.07812C50.6202 9.28883 50.8013 9.56818 50.9363 9.91619C51.0712 10.2642 51.1387 10.6927 51.1387 11.2017V11.5568H46.9341V10.8324H50.2864C50.2864 10.5246 50.2248 10.25 50.1017 10.0085C49.981 9.76705 49.8082 9.57647 49.5833 9.43679C49.3607 9.29711 49.098 9.22727 48.7949 9.22727C48.4611 9.22727 48.1723 9.31013 47.9284 9.47585C47.687 9.6392 47.5011 9.85227 47.3709 10.1151C47.2407 10.3778 47.1756 10.6596 47.1756 10.9602V11.4432C47.1756 11.8551 47.2466 12.2043 47.3887 12.4908C47.5331 12.7749 47.7331 12.9915 47.9888 13.1406C48.2445 13.2874 48.5416 13.3608 48.8801 13.3608C49.1003 13.3608 49.2992 13.33 49.4767 13.2685C49.6567 13.2045 49.8117 13.1098 49.9419 12.9844C50.0721 12.8565 50.1728 12.6979 50.2438 12.5085L51.0534 12.7358C50.9682 13.0104 50.825 13.2519 50.6238 13.4602C50.4225 13.6662 50.1739 13.8272 49.878 13.9432C49.5821 14.0568 49.2495 14.1136 48.8801 14.1136ZM56.2772 9.76705L55.5243 9.98011C55.477 9.85464 55.4071 9.73272 55.3148 9.61435C55.2248 9.49361 55.1017 9.39418 54.9455 9.31605C54.7892 9.23793 54.5892 9.19886 54.3453 9.19886C54.0115 9.19886 53.7334 9.2758 53.5108 9.42969C53.2907 9.5812 53.1806 9.77415 53.1806 10.0085C53.1806 10.2169 53.2563 10.3814 53.4078 10.5021C53.5594 10.6229 53.7961 10.7235 54.1181 10.804L54.9277 11.0028C55.4154 11.1212 55.7788 11.3023 56.0179 11.5462C56.257 11.7876 56.3766 12.099 56.3766 12.4801C56.3766 12.7926 56.2866 13.072 56.1067 13.3182C55.9292 13.5644 55.6806 13.7585 55.361 13.9006C55.0414 14.0426 54.6697 14.1136 54.2459 14.1136C53.6896 14.1136 53.2291 13.9929 52.8645 13.7514C52.4999 13.5099 52.2691 13.1572 52.1721 12.6932L52.9675 12.4943C53.0433 12.7879 53.1865 13.008 53.3972 13.1548C53.6103 13.3016 53.8884 13.375 54.2317 13.375C54.6223 13.375 54.9325 13.2921 55.1621 13.1264C55.3941 12.9583 55.5101 12.7571 55.5101 12.5227C55.5101 12.3333 55.4438 12.1747 55.3113 12.0469C55.1787 11.9167 54.9751 11.8196 54.7005 11.7557L53.7914 11.5426C53.2918 11.4242 52.9249 11.2408 52.6905 10.9922C52.4585 10.7412 52.3425 10.4276 52.3425 10.0511C52.3425 9.74337 52.4289 9.47112 52.6017 9.23438C52.7769 8.99763 53.0149 8.81179 53.3155 8.67685C53.6185 8.5419 53.9618 8.47443 54.3453 8.47443C54.8851 8.47443 55.3089 8.5928 55.6167 8.82955C55.9268 9.06629 56.147 9.37879 56.2772 9.76705ZM61.5018 9.76705L60.7489 9.98011C60.7016 9.85464 60.6317 9.73272 60.5394 9.61435C60.4495 9.49361 60.3263 9.39418 60.1701 9.31605C60.0138 9.23793 59.8138 9.19886 59.57 9.19886C59.2362 9.19886 58.958 9.2758 58.7354 9.42969C58.5153 9.5812 58.4052 9.77415 58.4052 10.0085C58.4052 10.2169 58.4809 10.3814 58.6325 10.5021C58.784 10.6229 59.0207 10.7235 59.3427 10.804L60.1523 11.0028C60.64 11.1212 61.0034 11.3023 61.2425 11.5462C61.4817 11.7876 61.6012 12.099 61.6012 12.4801C61.6012 12.7926 61.5112 13.072 61.3313 13.3182C61.1538 13.5644 60.9052 13.7585 60.5856 13.9006C60.266 14.0426 59.8943 14.1136 59.4705 14.1136C58.9142 14.1136 58.4537 13.9929 58.0891 13.7514C57.7246 13.5099 57.4937 13.1572 57.3967 12.6932L58.1921 12.4943C58.2679 12.7879 58.4111 13.008 58.6218 13.1548C58.8349 13.3016 59.113 13.375 59.4563 13.375C59.8469 13.375 60.1571 13.2921 60.3867 13.1264C60.6187 12.9583 60.7347 12.7571 60.7347 12.5227C60.7347 12.3333 60.6684 12.1747 60.5359 12.0469C60.4033 11.9167 60.1997 11.8196 59.9251 11.7557L59.016 11.5426C58.5165 11.4242 58.1495 11.2408 57.9151 10.9922C57.6831 10.7412 57.5671 10.4276 57.5671 10.0511C57.5671 9.74337 57.6535 9.47112 57.8263 9.23438C58.0015 8.99763 58.2395 8.81179 58.5401 8.67685C58.8432 8.5419 59.1864 8.47443 59.57 8.47443C60.1097 8.47443 60.5335 8.5928 60.8413 8.82955C61.1514 9.06629 61.3716 9.37879 61.5018 9.76705Z" fill="#35A4FF"/>
</svg>
