<svg width="71" height="31" viewBox="0 0 71 31" fill="none" xmlns="http://www.w3.org/2000/svg">
<path d="M10.5 10.5H60.5C66.0228 10.5 70.5 14.9772 70.5 20.5C70.5 26.0228 66.0229 30.5 60.5 30.5H10.5C4.97715 30.5 0.5 26.0228 0.5 20.5C0.5 14.9772 4.97715 10.5 10.5 10.5Z" fill="#C8E6FF"/>
<path d="M10.5 10.5H60.5C66.0228 10.5 70.5 14.9772 70.5 20.5C70.5 26.0228 66.0229 30.5 60.5 30.5H10.5C4.97715 30.5 0.5 26.0228 0.5 20.5C0.5 14.9772 4.97715 10.5 10.5 10.5Z" stroke="#35A4FF"/>
<path d="M10.7614 16.7273V24H9.88068V16.7273H10.7614ZM13.2516 20.7188V24H12.4135V18.5455H13.2232V19.3977H13.2942C13.4221 19.1207 13.6162 18.8982 13.8766 18.7301C14.137 18.5597 14.4732 18.4744 14.8851 18.4744C15.2544 18.4744 15.5776 18.5502 15.8546 18.7017C16.1316 18.8509 16.347 19.0781 16.5009 19.3835C16.6548 19.6866 16.7317 20.0701 16.7317 20.5341V24H15.8936V20.5909C15.8936 20.1624 15.7824 19.8286 15.5598 19.5895C15.3373 19.348 15.0319 19.2273 14.6436 19.2273C14.3761 19.2273 14.137 19.2853 13.9263 19.4013C13.718 19.5173 13.5534 19.6866 13.4327 19.9091C13.312 20.1316 13.2516 20.4015 13.2516 20.7188ZM21.1893 24V16.7273H23.6467C24.2172 16.7273 24.6836 16.8303 25.0458 17.0362C25.4104 17.2398 25.6803 17.5156 25.8555 17.8636C26.0307 18.2116 26.1183 18.5999 26.1183 19.0284C26.1183 19.4569 26.0307 19.8464 25.8555 20.1967C25.6826 20.5471 25.4151 20.8265 25.0529 21.0348C24.6907 21.2408 24.2267 21.3438 23.6609 21.3438H21.8995V20.5625H23.6325C24.0231 20.5625 24.3368 20.495 24.5735 20.3601C24.8103 20.2251 24.9819 20.0429 25.0884 19.8132C25.1973 19.5812 25.2518 19.3196 25.2518 19.0284C25.2518 18.7372 25.1973 18.4768 25.0884 18.2472C24.9819 18.0175 24.8091 17.8376 24.57 17.7074C24.3308 17.5748 24.0136 17.5085 23.6183 17.5085H22.07V24H21.1893ZM27.4233 24V18.5455H28.233V19.3693H28.2898C28.3892 19.0994 28.5691 18.8804 28.8295 18.7124C29.09 18.5443 29.3835 18.4602 29.7102 18.4602C29.7718 18.4602 29.8487 18.4614 29.9411 18.4638C30.0334 18.4661 30.1032 18.4697 30.1506 18.4744V19.3267C30.1222 19.3196 30.0571 19.3089 29.9553 19.2947C29.8558 19.2782 29.7505 19.2699 29.6392 19.2699C29.3741 19.2699 29.1373 19.3255 28.929 19.4368C28.723 19.5457 28.5597 19.6972 28.4389 19.8913C28.3205 20.0831 28.2614 20.3021 28.2614 20.5483V24H27.4233ZM33.1939 24.1136C32.7015 24.1136 32.2694 23.9964 31.8977 23.7621C31.5284 23.5277 31.2396 23.1998 31.0312 22.7784C30.8253 22.357 30.7223 21.8646 30.7223 21.3011C30.7223 20.733 30.8253 20.237 31.0312 19.8132C31.2396 19.3894 31.5284 19.0604 31.8977 18.826C32.2694 18.5916 32.7015 18.4744 33.1939 18.4744C33.6863 18.4744 34.1172 18.5916 34.4865 18.826C34.8582 19.0604 35.147 19.3894 35.353 19.8132C35.5613 20.237 35.6655 20.733 35.6655 21.3011C35.6655 21.8646 35.5613 22.357 35.353 22.7784C35.147 23.1998 34.8582 23.5277 34.4865 23.7621C34.1172 23.9964 33.6863 24.1136 33.1939 24.1136ZM33.1939 23.3608C33.5679 23.3608 33.8757 23.2649 34.1172 23.0732C34.3587 22.8814 34.5374 22.6293 34.6534 22.3168C34.7694 22.0043 34.8274 21.6657 34.8274 21.3011C34.8274 20.9366 34.7694 20.5968 34.6534 20.282C34.5374 19.9671 34.3587 19.7126 34.1172 19.5185C33.8757 19.3243 33.5679 19.2273 33.1939 19.2273C32.8198 19.2273 32.5121 19.3243 32.2706 19.5185C32.0291 19.7126 31.8504 19.9671 31.7344 20.282C31.6184 20.5968 31.5604 20.9366 31.5604 21.3011C31.5604 21.6657 31.6184 22.0043 31.7344 22.3168C31.8504 22.6293 32.0291 22.8814 32.2706 23.0732C32.5121 23.2649 32.8198 23.3608 33.1939 23.3608ZM39.1465 26.1591C38.7417 26.1591 38.3936 26.107 38.1025 26.0028C37.8113 25.901 37.5686 25.7661 37.3745 25.598C37.1827 25.4323 37.03 25.2547 36.9164 25.0653L37.584 24.5966C37.6597 24.696 37.7556 24.8097 37.8716 24.9375C37.9876 25.0677 38.1462 25.1802 38.3475 25.2749C38.5511 25.3719 38.8174 25.4205 39.1465 25.4205C39.5868 25.4205 39.9502 25.3139 40.2367 25.1009C40.5231 24.8878 40.6664 24.554 40.6664 24.0994V22.9915H40.5953C40.5338 23.0909 40.4462 23.214 40.3326 23.3608C40.2213 23.5052 40.0603 23.6342 39.8496 23.7479C39.6413 23.8591 39.3596 23.9148 39.0044 23.9148C38.5641 23.9148 38.1687 23.8106 37.8184 23.6023C37.4703 23.3939 37.1945 23.0909 36.9909 22.6932C36.7897 22.2955 36.6891 21.8125 36.6891 21.2443C36.6891 20.6856 36.7873 20.1991 36.9838 19.7848C37.1803 19.3681 37.4538 19.0462 37.8042 18.8189C38.1545 18.5893 38.5594 18.4744 39.0186 18.4744C39.3738 18.4744 39.6555 18.5336 39.8638 18.652C40.0745 18.768 40.2355 18.9006 40.3468 19.0497C40.4604 19.1965 40.548 19.3172 40.6096 19.4119H40.6948V18.5455H41.5044V24.1562C41.5044 24.625 41.3979 25.0062 41.1848 25.2997C40.9741 25.5956 40.69 25.8123 40.3326 25.9496C39.9775 26.0893 39.5821 26.1591 39.1465 26.1591ZM39.1181 23.1619C39.4542 23.1619 39.7383 23.085 39.9703 22.9311C40.2024 22.7772 40.3787 22.5559 40.4995 22.267C40.6202 21.9782 40.6806 21.6326 40.6806 21.2301C40.6806 20.8371 40.6214 20.4903 40.503 20.1896C40.3846 19.889 40.2095 19.6534 39.9775 19.483C39.7454 19.3125 39.459 19.2273 39.1181 19.2273C38.763 19.2273 38.467 19.3172 38.2303 19.4972C37.9959 19.6771 37.8195 19.9186 37.7012 20.2216C37.5852 20.5246 37.5272 20.8608 37.5272 21.2301C37.5272 21.6089 37.5864 21.9439 37.7047 22.2351C37.8255 22.5239 38.003 22.7512 38.2374 22.9169C38.4741 23.0803 38.7677 23.1619 39.1181 23.1619ZM43.0385 24V18.5455H43.8482V19.3693H43.905C44.0044 19.0994 44.1844 18.8804 44.4448 18.7124C44.7052 18.5443 44.9988 18.4602 45.3255 18.4602C45.387 18.4602 45.464 18.4614 45.5563 18.4638C45.6486 18.4661 45.7185 18.4697 45.7658 18.4744V19.3267C45.7374 19.3196 45.6723 19.3089 45.5705 19.2947C45.4711 19.2782 45.3657 19.2699 45.2544 19.2699C44.9893 19.2699 44.7525 19.3255 44.5442 19.4368C44.3382 19.5457 44.1749 19.6972 44.0542 19.8913C43.9358 20.0831 43.8766 20.3021 43.8766 20.5483V24H43.0385ZM48.8801 24.1136C48.3546 24.1136 47.9012 23.9976 47.5201 23.7656C47.1413 23.5312 46.8489 23.2045 46.6429 22.7855C46.4393 22.3641 46.3375 21.8741 46.3375 21.3153C46.3375 20.7566 46.4393 20.2642 46.6429 19.8381C46.8489 19.4096 47.1354 19.0758 47.5023 18.8366C47.8716 18.5952 48.3025 18.4744 48.7949 18.4744C49.079 18.4744 49.3596 18.5218 49.6365 18.6165C49.9135 18.7112 50.1657 18.8651 50.3929 19.0781C50.6202 19.2888 50.8013 19.5682 50.9363 19.9162C51.0712 20.2642 51.1387 20.6927 51.1387 21.2017V21.5568H46.9341V20.8324H50.2864C50.2864 20.5246 50.2248 20.25 50.1017 20.0085C49.981 19.767 49.8082 19.5765 49.5833 19.4368C49.3607 19.2971 49.098 19.2273 48.7949 19.2273C48.4611 19.2273 48.1723 19.3101 47.9284 19.4759C47.687 19.6392 47.5011 19.8523 47.3709 20.1151C47.2407 20.3778 47.1756 20.6596 47.1756 20.9602V21.4432C47.1756 21.8551 47.2466 22.2043 47.3887 22.4908C47.5331 22.7749 47.7331 22.9915 47.9888 23.1406C48.2445 23.2874 48.5416 23.3608 48.8801 23.3608C49.1003 23.3608 49.2992 23.33 49.4767 23.2685C49.6567 23.2045 49.8117 23.1098 49.9419 22.9844C50.0721 22.8565 50.1728 22.6979 50.2438 22.5085L51.0534 22.7358C50.9682 23.0104 50.825 23.2519 50.6238 23.4602C50.4225 23.6662 50.1739 23.8272 49.878 23.9432C49.5821 24.0568 49.2495 24.1136 48.8801 24.1136ZM56.2772 19.767L55.5243 19.9801C55.477 19.8546 55.4071 19.7327 55.3148 19.6143C55.2248 19.4936 55.1017 19.3942 54.9455 19.3161C54.7892 19.2379 54.5892 19.1989 54.3453 19.1989C54.0115 19.1989 53.7334 19.2758 53.5108 19.4297C53.2907 19.5812 53.1806 19.7741 53.1806 20.0085C53.1806 20.2169 53.2563 20.3814 53.4078 20.5021C53.5594 20.6229 53.7961 20.7235 54.1181 20.804L54.9277 21.0028C55.4154 21.1212 55.7788 21.3023 56.0179 21.5462C56.257 21.7876 56.3766 22.099 56.3766 22.4801C56.3766 22.7926 56.2866 23.072 56.1067 23.3182C55.9292 23.5644 55.6806 23.7585 55.361 23.9006C55.0414 24.0426 54.6697 24.1136 54.2459 24.1136C53.6896 24.1136 53.2291 23.9929 52.8645 23.7514C52.4999 23.5099 52.2691 23.1572 52.1721 22.6932L52.9675 22.4943C53.0433 22.7879 53.1865 23.008 53.3972 23.1548C53.6103 23.3016 53.8884 23.375 54.2317 23.375C54.6223 23.375 54.9325 23.2921 55.1621 23.1264C55.3941 22.9583 55.5101 22.7571 55.5101 22.5227C55.5101 22.3333 55.4438 22.1747 55.3113 22.0469C55.1787 21.9167 54.9751 21.8196 54.7005 21.7557L53.7914 21.5426C53.2918 21.4242 52.9249 21.2408 52.6905 20.9922C52.4585 20.7412 52.3425 20.4276 52.3425 20.0511C52.3425 19.7434 52.4289 19.4711 52.6017 19.2344C52.7769 18.9976 53.0149 18.8118 53.3155 18.6768C53.6185 18.5419 53.9618 18.4744 54.3453 18.4744C54.8851 18.4744 55.3089 18.5928 55.6167 18.8295C55.9268 19.0663 56.147 19.3788 56.2772 19.767ZM61.5018 19.767L60.7489 19.9801C60.7016 19.8546 60.6317 19.7327 60.5394 19.6143C60.4495 19.4936 60.3263 19.3942 60.1701 19.3161C60.0138 19.2379 59.8138 19.1989 59.57 19.1989C59.2362 19.1989 58.958 19.2758 58.7354 19.4297C58.5153 19.5812 58.4052 19.7741 58.4052 20.0085C58.4052 20.2169 58.4809 20.3814 58.6325 20.5021C58.784 20.6229 59.0207 20.7235 59.3427 20.804L60.1523 21.0028C60.64 21.1212 61.0034 21.3023 61.2425 21.5462C61.4817 21.7876 61.6012 22.099 61.6012 22.4801C61.6012 22.7926 61.5112 23.072 61.3313 23.3182C61.1538 23.5644 60.9052 23.7585 60.5856 23.9006C60.266 24.0426 59.8943 24.1136 59.4705 24.1136C58.9142 24.1136 58.4537 23.9929 58.0891 23.7514C57.7246 23.5099 57.4937 23.1572 57.3967 22.6932L58.1921 22.4943C58.2679 22.7879 58.4111 23.008 58.6218 23.1548C58.8349 23.3016 59.113 23.375 59.4563 23.375C59.8469 23.375 60.1571 23.2921 60.3867 23.1264C60.6187 22.9583 60.7347 22.7571 60.7347 22.5227C60.7347 22.3333 60.6684 22.1747 60.5359 22.0469C60.4033 21.9167 60.1997 21.8196 59.9251 21.7557L59.016 21.5426C58.5165 21.4242 58.1495 21.2408 57.9151 20.9922C57.6831 20.7412 57.5671 20.4276 57.5671 20.0511C57.5671 19.7434 57.6535 19.4711 57.8263 19.2344C58.0015 18.9976 58.2395 18.8118 58.5401 18.6768C58.8432 18.5419 59.1864 18.4744 59.57 18.4744C60.1097 18.4744 60.5335 18.5928 60.8413 18.8295C61.1514 19.0663 61.3716 19.3788 61.5018 19.767Z" fill="#35A4FF"/>
</svg>
